<?xml version="1.0" standalone="no"?>
<!DOCTYPE svg PUBLIC "-//W3C//DTD SVG 20010904//EN"
 "http://www.w3.org/TR/2001/REC-SVG-20010904/DTD/svg10.dtd">
<svg version="1.0" xmlns="http://www.w3.org/2000/svg"
 width="175.000000pt" height="175.000000pt" viewBox="0 0 175.000000 175.000000"
 preserveAspectRatio="xMidYMid meet">
<metadata>
Created by potrace 1.14, written by Peter Selinger 2001-2017
</metadata>
<g transform="translate(0.000000,175.000000) scale(0.100000,-0.100000)"
fill="#000000" stroke="none">
<path d="M654 1576 c-51 -22 -74 -61 -74 -123 0 -49 4 -59 34 -89 31 -31 40
-34 91 -34 51 0 60 3 91 34 31 31 34 39 34 95 0 55 -3 63 -31 88 -48 43 -92
52 -145 29z"/>
<path d="M600 725 l0 -545 115 0 115 0 0 30 c0 34 14 39 30 10 25 -46 116 -64
184 -36 46 19 83 71 102 145 13 52 15 110 12 344 -4 307 -7 329 -65 390 -48
49 -150 62 -216 27 -20 -11 -39 -20 -42 -20 -3 0 -5 45 -5 100 l0 100 -115 0
-115 0 0 -545z m310 205 c13 -8 16 -51 18 -262 2 -139 0 -267 -3 -285 -8 -47
-63 -57 -81 -15 -10 25 -18 399 -9 476 8 84 34 112 75 86z"/>
</g>
</svg>
